<svg width="15" height="14" viewBox="0 0 15 14" fill="none" xmlns="http://www.w3.org/2000/svg">
<path fill-rule="evenodd" clip-rule="evenodd" d="M7.50016 13.8403C11.1821 13.8403 14.1668 10.8555 14.1668 7.17363C14.1668 3.49173 11.1821 0.506958 7.50016 0.506958C3.81826 0.506958 0.833496 3.49173 0.833496 7.17363C0.833496 10.8555 3.81826 13.8403 7.50016 13.8403ZM11.5406 5.88073C11.9311 5.49021 11.9311 4.85704 11.5406 4.46652C11.1501 4.07599 10.5169 4.07599 10.1264 4.46652L6.8335 7.75941L5.5406 6.46652C5.15008 6.07599 4.51691 6.07599 4.12639 6.46652C3.73587 6.85704 3.73587 7.49021 4.12639 7.88073L6.12639 9.88073C6.31393 10.0683 6.56828 10.1736 6.8335 10.1736C7.09871 10.1736 7.35307 10.0683 7.5406 9.88073L11.5406 5.88073Z" fill="#FCFCFD"/>
</svg>
